<?xml version="1.0" encoding="utf-8"?>
<!-- Generator: Adobe Illustrator 22.0.1, SVG Export Plug-In . SVG Version: 6.00 Build 0)  -->
<svg version="1.1" id="Livello_1" xmlns="http://www.w3.org/2000/svg" xmlns:xlink="http://www.w3.org/1999/xlink" x="0px" y="0px"
	 viewBox="0 0 1326 768" style="enable-background:new 0 0 1326 768;" xml:space="preserve">
<style type="text/css">
	.st0{fill:none;stroke:#63A3B7;stroke-width:2;stroke-miterlimit:10;}
	.st1{fill:#63A3B7;}
</style>
<g>
	<line class="st0" x1="1210.9" y1="375.2" x2="1202.9" y2="375.2"/>
</g>
<g>
	<line class="st0" x1="1158.6" y1="393.9" x2="1150.6" y2="393.9"/>
</g>
<g>
	<line class="st0" x1="1045.1" y1="393.9" x2="1037.1" y2="393.9"/>
</g>
<g>
	<line class="st0" x1="400.9" y1="420.2" x2="393" y2="420.2"/>
</g>
<g>
	<line class="st0" x1="299.7" y1="418.3" x2="291.7" y2="418.3"/>
</g>
<g>
	<line class="st0" x1="114.6" y1="437.1" x2="106.7" y2="437.1"/>
</g>
<g>
	<line class="st0" x1="1193.9" y1="467.1" x2="1185.9" y2="467.1"/>
</g>
<g>
	<line class="st0" x1="1193.2" y1="151.8" x2="1185.2" y2="151.8"/>
</g>
<g>
	<line class="st0" x1="924.6" y1="459.6" x2="916.6" y2="459.6"/>
</g>
<g>
	<line class="st0" x1="1219.9" y1="650.6" x2="1211.9" y2="650.6"/>
</g>
<g>
	<line class="st0" x1="416" y1="656.5" x2="408" y2="656.5"/>
</g>
<g>
	<line class="st0" x1="321.8" y1="485.9" x2="313.9" y2="485.9"/>
</g>
<g>
	<line class="st0" x1="178.7" y1="495.3" x2="170.7" y2="495.3"/>
</g>
<g>
	<line class="st0" x1="1089.4" y1="586" x2="1081.4" y2="586"/>
</g>
<g>
	<line class="st0" x1="1026.3" y1="517.8" x2="1018.3" y2="517.8"/>
</g>
<g>
	<line class="st0" x1="807.8" y1="527.2" x2="799.8" y2="527.2"/>
</g>
<g>
	<line class="st0" x1="568.9" y1="555.8" x2="560.9" y2="555.8"/>
</g>
<g>
	<line class="st0" x1="382.1" y1="546" x2="374.1" y2="546"/>
</g>
<g>
	<line class="st0" x1="219.7" y1="580.4" x2="211.7" y2="580.4"/>
</g>
<g>
	<line class="st0" x1="1261.4" y1="692.4" x2="1253.4" y2="692.4"/>
</g>
<g>
	<line class="st0" x1="902" y1="564.7" x2="894" y2="564.7"/>
</g>
<g>
	<line class="st0" x1="683.5" y1="576" x2="675.5" y2="576"/>
</g>
<g>
	<line class="st0" x1="498" y1="563.4" x2="490" y2="563.4"/>
</g>
<g>
	<line class="st0" x1="299.2" y1="592.9" x2="291.3" y2="592.9"/>
</g>
<g>
	<line class="st0" x1="988.6" y1="603.5" x2="980.6" y2="603.5"/>
</g>
<g>
	<line class="st0" x1="788.9" y1="613.5" x2="781" y2="613.5"/>
</g>
<g>
	<line class="st0" x1="159.9" y1="662.3" x2="151.9" y2="662.3"/>
</g>
<g>
	<line class="st0" x1="363.3" y1="622.9" x2="355.3" y2="622.9"/>
</g>
<g>
	<line class="st0" x1="947.2" y1="632.3" x2="939.2" y2="632.3"/>
</g>
<g>
	<line class="st0" x1="724.9" y1="643.6" x2="716.9" y2="643.6"/>
</g>
<g>
	<line class="st0" x1="525.3" y1="653" x2="517.3" y2="653"/>
</g>
<g>
	<line class="st0" x1="129.9" y1="264.4" x2="137.9" y2="264.4"/>
</g>
<g>
	<line class="st0" x1="266.1" y1="252.7" x2="274.1" y2="252.7"/>
</g>
<g>
	<line class="st0" x1="453.2" y1="328.2" x2="461.2" y2="328.2"/>
</g>
<g>
	<line class="st0" x1="293.8" y1="273.3" x2="301.8" y2="273.3"/>
</g>
<g>
	<line class="st0" x1="1024.6" y1="305.2" x2="1032.5" y2="305.2"/>
</g>
<g>
	<line class="st0" x1="1082.3" y1="356.4" x2="1090.3" y2="356.4"/>
</g>
<g>
	<line class="st0" x1="1161.4" y1="365.8" x2="1169.4" y2="365.8"/>
</g>
<g>
	<line class="st0" x1="185.8" y1="247.5" x2="193.8" y2="247.5"/>
</g>
<g>
	<line class="st0" x1="336.5" y1="256.9" x2="344.4" y2="256.9"/>
</g>
<g>
	<line class="st0" x1="560.9" y1="248.1" x2="568.9" y2="248.1"/>
</g>
<g>
	<line class="st0" x1="806.4" y1="285.6" x2="814.4" y2="285.6"/>
</g>
<g>
	<line class="st0" x1="980.6" y1="288.8" x2="988.6" y2="288.8"/>
</g>
<g>
	<line class="st0" x1="1101.2" y1="298.2" x2="1109.1" y2="298.2"/>
</g>
<g>
	<line class="st0" x1="249.8" y1="200.6" x2="257.8" y2="200.6"/>
</g>
<g>
	<line class="st0" x1="434.4" y1="210" x2="442.4" y2="210"/>
</g>
<g>
	<line class="st0" x1="637.8" y1="219.4" x2="645.8" y2="219.4"/>
</g>
<g>
	<line class="st0" x1="860.1" y1="228.8" x2="868.1" y2="228.8"/>
</g>
<g>
	<line class="st0" x1="1059.7" y1="238.1" x2="1067.7" y2="238.1"/>
</g>
<g>
	<line class="st0" x1="87.8" y1="121.8" x2="95.8" y2="121.8"/>
</g>
<g>
	<line class="st0" x1="536.1" y1="170.6" x2="544.1" y2="170.6"/>
</g>
<g>
	<line class="st0" x1="753.4" y1="191.7" x2="761.4" y2="191.7"/>
</g>
<g>
	<line class="st0" x1="958" y1="191.2" x2="966" y2="191.2"/>
</g>
<g>
	<line class="st0" x1="415.6" y1="142.4" x2="423.5" y2="142.4"/>
</g>
<g>
	<line class="st0" x1="615.2" y1="151.8" x2="623.2" y2="151.8"/>
</g>
<g>
	<line class="st0" x1="834.6" y1="184.2" x2="842.6" y2="184.2"/>
</g>
<rect x="120.2" y="525.1" class="st1" width="6.6" height="6.6"/>
<rect x="510.4" y="317.4" class="st1" width="6.6" height="6.6"/>
<rect x="348.4" y="144.7" class="st1" width="6.6" height="6.6"/>
<rect x="484" y="180.4" class="st1" width="6.6" height="6.6"/>
<rect x="92.3" y="287.4" class="st1" width="6.6" height="6.6"/>
<rect x="325.8" y="302.4" class="st1" width="6.6" height="6.6"/>
<rect x="619.7" y="238.6" class="st1" width="6.6" height="6.6"/>
<rect x="593.3" y="120.3" class="st1" width="6.6" height="6.6"/>
<rect x="747.4" y="159.3" class="st1" width="6.6" height="6.6"/>
<rect x="777.9" y="137.2" class="st1" width="6.6" height="6.6"/>
<rect x="868.3" y="608.3" class="st1" width="6.6" height="6.6"/>
<rect x="197.7" y="202.9" class="st1" width="6.6" height="6.6"/>
<rect x="408.7" y="497.6" class="st1" width="6.6" height="6.6"/>
<rect x="311.3" y="593.9" class="st1" width="6.6" height="6.6"/>
<rect x="631" y="595.7" class="st1" width="6.6" height="6.6"/>
<rect x="227.9" y="480.7" class="st1" width="6.6" height="6.6"/>
<rect x="62.1" y="437.5" class="st1" width="6.6" height="6.6"/>
<rect x="339" y="354.9" class="st1" width="6.6" height="6.6"/>
<rect x="261.8" y="642.1" class="st1" width="6.6" height="6.6"/>
<rect x="457.7" y="672.2" class="st1" width="6.6" height="6.6"/>
<rect x="677.7" y="619.1" class="st1" width="6.6" height="6.6"/>
<rect x="621.1" y="519.5" class="st1" width="6.6" height="6.6"/>
<rect x="167.6" y="358.7" class="st1" width="6.6" height="6.6"/>
<rect x="1229.9" y="130.8" class="st1" width="6.6" height="6.6"/>
<rect x="258" y="126" class="st1" width="6.6" height="6.6"/>
<rect x="209" y="153.2" class="st1" width="6.6" height="6.6"/>
<rect x="1112.5" y="216" class="st1" width="6.6" height="6.6"/>
<rect x="1121.3" y="410" class="st1" width="6.6" height="6.6"/>
<rect x="1194.8" y="406.7" class="st1" width="6.6" height="6.6"/>
<rect x="1116.9" y="272.4" class="st1" width="6.6" height="6.6"/>
<rect x="973.8" y="217.9" class="st1" width="6.6" height="6.6"/>
<rect x="1075.5" y="191.6" class="st1" width="6.6" height="6.6"/>
<rect x="951.2" y="531.4" class="st1" width="6.6" height="6.6"/>
<rect x="1154.6" y="563.3" class="st1" width="6.6" height="6.6"/>
<rect x="1201.3" y="505.4" class="st1" width="6.6" height="6.6"/>
<rect x="984.1" y="644" class="st1" width="6.6" height="6.6"/>
<rect x="111.1" y="214.2" class="st1" width="6.6" height="6.6"/>
<rect x="884.6" y="164.8" class="st1" width="6.6" height="6.6"/>
<rect x="114.9" y="694.7" class="st1" width="6.6" height="6.6"/>
<rect x="808" y="683.4" class="st1" width="6.6" height="6.6"/>
<rect x="754.1" y="223.6" class="st1" width="6.6" height="6.6"/>
<rect x="84.7" y="150.4" class="st1" width="6.6" height="6.6"/>
<rect x="540.5" y="713.5" class="st1" width="6.6" height="6.6"/>
<rect x="1045.3" y="450.7" class="st1" width="6.6" height="6.6"/>
<g>
	<line class="st0" x1="443.4" y1="548.7" x2="454.1" y2="548.7"/>
	<line class="st0" x1="448.8" y1="543.4" x2="448.8" y2="554.1"/>
	<g>
		<line class="st0" x1="443.4" y1="548.7" x2="454.1" y2="548.7"/>
	</g>
</g>
<g>
	<line class="st0" x1="1077.2" y1="134.9" x2="1087.9" y2="134.9"/>
	<line class="st0" x1="1082.6" y1="129.6" x2="1082.6" y2="140.3"/>
	<g>
		<line class="st0" x1="1077.2" y1="134.9" x2="1087.9" y2="134.9"/>
	</g>
</g>
<g>
	<line class="st0" x1="357.9" y1="225" x2="368.6" y2="225"/>
	<line class="st0" x1="363.3" y1="219.6" x2="363.3" y2="230.3"/>
	<g>
		<line class="st0" x1="357.9" y1="225" x2="368.6" y2="225"/>
	</g>
</g>
<g>
	<line class="st0" x1="719.3" y1="303.8" x2="730" y2="303.8"/>
	<line class="st0" x1="724.7" y1="298.5" x2="724.7" y2="309.2"/>
	<g>
		<line class="st0" x1="719.3" y1="303.8" x2="730" y2="303.8"/>
	</g>
</g>
<g>
	<line class="st0" x1="459.4" y1="264.4" x2="470.1" y2="264.4"/>
	<line class="st0" x1="464.8" y1="259.1" x2="464.8" y2="269.8"/>
	<g>
		<line class="st0" x1="459.4" y1="264.4" x2="470.1" y2="264.4"/>
	</g>
</g>
<g>
	<line class="st0" x1="357.7" y1="405.2" x2="368.4" y2="405.2"/>
	<line class="st0" x1="363.1" y1="399.8" x2="363.1" y2="410.5"/>
	<g>
		<line class="st0" x1="357.7" y1="405.2" x2="368.4" y2="405.2"/>
	</g>
</g>
<g>
	<line class="st0" x1="443.4" y1="496.9" x2="454.1" y2="496.9"/>
	<line class="st0" x1="448.8" y1="491.5" x2="448.8" y2="502.2"/>
	<g>
		<line class="st0" x1="443.4" y1="496.9" x2="454.1" y2="496.9"/>
	</g>
</g>
<g>
	<line class="st0" x1="719.6" y1="535.2" x2="730.3" y2="535.2"/>
	<line class="st0" x1="724.9" y1="529.9" x2="724.9" y2="540.6"/>
	<g>
		<line class="st0" x1="719.6" y1="535.2" x2="730.3" y2="535.2"/>
	</g>
</g>
<g>
	<line class="st0" x1="975.5" y1="514.1" x2="986.2" y2="514.1"/>
	<line class="st0" x1="980.8" y1="508.7" x2="980.8" y2="519.4"/>
	<g>
		<line class="st0" x1="975.5" y1="514.1" x2="986.2" y2="514.1"/>
	</g>
</g>
<g>
	<line class="st0" x1="1001.9" y1="386.4" x2="1012.6" y2="386.4"/>
	<line class="st0" x1="1007.2" y1="381.1" x2="1007.2" y2="391.8"/>
	<g>
		<line class="st0" x1="1001.9" y1="386.4" x2="1012.6" y2="386.4"/>
	</g>
</g>
<g>
	<line class="st0" x1="1047.1" y1="260.7" x2="1057.8" y2="260.7"/>
	<line class="st0" x1="1052.4" y1="255.3" x2="1052.4" y2="266"/>
	<g>
		<line class="st0" x1="1047.1" y1="260.7" x2="1057.8" y2="260.7"/>
	</g>
</g>
<g>
	<line class="st0" x1="606.3" y1="211.9" x2="617" y2="211.9"/>
	<line class="st0" x1="611.7" y1="206.5" x2="611.7" y2="217.2"/>
	<g>
		<line class="st0" x1="606.3" y1="211.9" x2="617" y2="211.9"/>
	</g>
</g>
<g>
	<line class="st0" x1="410.4" y1="223.1" x2="421.1" y2="223.1"/>
	<line class="st0" x1="415.8" y1="217.8" x2="415.8" y2="228.5"/>
	<g>
		<line class="st0" x1="410.4" y1="223.1" x2="421.1" y2="223.1"/>
	</g>
</g>
<g>
	<line class="st0" x1="139.2" y1="325" x2="149.9" y2="325"/>
	<line class="st0" x1="144.6" y1="319.7" x2="144.6" y2="330.4"/>
	<g>
		<line class="st0" x1="139.2" y1="325" x2="149.9" y2="325"/>
	</g>
</g>
<g>
	<line class="st0" x1="118.1" y1="583.5" x2="128.8" y2="583.5"/>
	<line class="st0" x1="123.5" y1="578.2" x2="123.5" y2="588.9"/>
	<g>
		<line class="st0" x1="118.1" y1="583.5" x2="128.8" y2="583.5"/>
	</g>
</g>
<g>
	<line class="st0" x1="218.3" y1="634.2" x2="229" y2="634.2"/>
	<line class="st0" x1="223.7" y1="628.8" x2="223.7" y2="639.5"/>
	<g>
		<line class="st0" x1="218.3" y1="634.2" x2="229" y2="634.2"/>
	</g>
</g>
<g>
	<line class="st0" x1="1212.8" y1="607.9" x2="1223.5" y2="607.9"/>
	<line class="st0" x1="1218.2" y1="602.6" x2="1218.2" y2="613.3"/>
	<g>
		<line class="st0" x1="1212.8" y1="607.9" x2="1223.5" y2="607.9"/>
	</g>
</g>
<g>
	<line class="st0" x1="1127.7" y1="474.2" x2="1138.4" y2="474.2"/>
	<line class="st0" x1="1133.1" y1="468.9" x2="1133.1" y2="479.6"/>
	<g>
		<line class="st0" x1="1127.7" y1="474.2" x2="1138.4" y2="474.2"/>
	</g>
</g>
<g>
	<line class="st0" x1="1246.7" y1="176.2" x2="1257.4" y2="176.2"/>
	<line class="st0" x1="1252.1" y1="170.8" x2="1252.1" y2="181.5"/>
	<g>
		<line class="st0" x1="1246.7" y1="176.2" x2="1257.4" y2="176.2"/>
	</g>
</g>
<g>
	<line class="st0" x1="851.2" y1="270" x2="861.9" y2="270"/>
	<line class="st0" x1="856.5" y1="264.7" x2="856.5" y2="275.4"/>
	<g>
		<line class="st0" x1="851.2" y1="270" x2="861.9" y2="270"/>
	</g>
</g>
<polygon class="st1" points="723.8,139.1 728.5,134.4 733.1,139.1 "/>
<polygon class="st1" points="918.7,128.2 923.4,123.6 928.1,128.3 "/>
<polygon class="st1" points="1006.3,460 1011,455.4 1015.7,460.1 "/>
<polygon class="st1" points="923.4,491.9 928.1,487.3 932.8,492 "/>
<polygon class="st1" points="988,250.4 992.7,245.8 997.4,250.5 "/>
<polygon class="st1" points="895.3,259.2 900,254.5 904.7,259.3 "/>
<polygon class="st1" points="938.5,285 943.2,280.3 947.9,285.1 "/>
<polygon class="st1" points="1123,125.3 1127.7,120.6 1132.4,125.4 "/>
<polygon class="st1" points="934.7,574.5 939.4,569.9 944.1,574.6 "/>
<polygon class="st1" points="829.2,598.9 834,594.3 838.6,599 "/>
<polygon class="st1" points="757.7,690.3 762.4,685.6 767.1,690.4 "/>
<polygon class="st1" points="234,287.4 238.8,282.7 243.4,287.4 "/>
<polygon class="st1" points="1010.3,349.3 1015,344.6 1019.7,349.4 "/>
<polygon class="st1" points="512.8,236.7 517.5,232 522.2,236.7 "/>
<polygon class="st1" points="648.4,120.3 653.1,115.6 657.8,120.4 "/>
<polygon class="st1" points="520.3,191.6 525.1,187 529.7,191.7 "/>
<polygon class="st1" points="728.5,186.5 733.2,181.8 737.8,186.6 "/>
<polygon class="st1" points="844.3,157.8 849,153.2 853.7,157.9 "/>
<polygon class="st1" points="757.7,264.8 762.4,260.2 767.1,264.9 "/>
<polygon class="st1" points="283,112.8 287.7,108.1 292.4,112.9 "/>
<polygon class="st1" points="1032.7,122.2 1037.4,117.5 1042,122.3 "/>
<polygon class="st1" points="377.2,182.2 381.9,177.6 386.6,182.3 "/>
<polygon class="st1" points="531.6,285.5 536.4,280.8 541,285.6 "/>
<polygon class="st1" points="904.6,223.5 909.3,218.9 914,223.6 "/>
<polygon class="st1" points="396,302.4 400.8,297.7 405.4,302.4 "/>
<polygon class="st1" points="595.7,555.8 600.4,551.1 605.1,555.8 "/>
<polygon class="st1" points="416.1,560.9 420.9,556.3 425.5,561 "/>
<polygon class="st1" points="561.8,632.7 566.5,628.1 571.2,632.8 "/>
<polygon class="st1" points="422.4,619.6 427.1,614.9 431.8,619.7 "/>
<polygon class="st1" points="309.4,679.7 314.1,675 318.8,679.7 "/>
<polygon class="st1" points="448.8,711.6 453.5,706.9 458.2,711.6 "/>
<polygon class="st1" points="629.6,666.5 634.3,661.9 639,666.6 "/>
<polygon class="st1" points="1055.3,649.6 1060,645 1064.6,649.7 "/>
<polygon class="st1" points="328.2,426.3 333,421.6 337.6,426.3 "/>
<polygon class="st1" points="188.8,512.6 193.6,507.9 198.2,512.7 "/>
<polygon class="st1" points="234,608.3 238.8,603.7 243.4,608.4 "/>
<polygon class="st1" points="200.1,383.1 204.9,378.4 209.5,383.2 "/>
<polygon class="st1" points="279.2,381.2 284,376.5 288.6,381.3 "/>
<polygon class="st1" points="708.7,702.2 713.4,697.5 718.1,702.3 "/>
<polygon class="st1" points="441.2,353.1 446,348.4 450.6,353.1 "/>
<polygon class="st1" points="207.7,238.6 212.4,233.9 217.1,238.6 "/>
<polygon class="st1" points="689.9,542.6 694.6,538 699.2,542.7 "/>
<polygon class="st1" points="784,563.3 788.8,558.6 793.4,563.4 "/>
<polygon class="st1" points="664.1,291.7 668.8,287.1 673.5,291.8 "/>
<polygon class="st1" points="309.4,553.4 314.1,548.7 318.8,553.5 "/>
<circle class="st1" cx="807.6" cy="508.4" r="3.1"/>
<circle class="st1" cx="1042" cy="197.3" r="3.1"/>
<circle class="st1" cx="916.8" cy="196.8" r="3.1"/>
<circle class="st1" cx="144.6" cy="177.4" r="3.1"/>
<circle class="st1" cx="1029.8" cy="589.1" r="3.1"/>
<circle class="st1" cx="630.5" cy="714.9" r="3.1"/>
<circle class="st1" cx="607.9" cy="163.1" r="3.1"/>
<circle class="st1" cx="473.6" cy="636.1" r="3.1"/>
<circle class="st1" cx="555.2" cy="208.1" r="3.1"/>
<circle class="st1" cx="99.4" cy="377" r="3.1"/>
<circle class="st1" cx="1076.5" cy="493.4" r="3.1"/>
<circle class="st1" cx="366.8" cy="579.8" r="3.1"/>
<circle class="st1" cx="238.7" cy="665.5" r="3.1"/>
<circle class="st1" cx="1075" cy="624.8" r="3.1"/>
<circle class="st1" cx="796.3" cy="169.2" r="3.1"/>
<circle class="st1" cx="357.7" cy="467.1" r="3.1"/>
<circle class="st1" cx="1176.7" cy="193.1" r="3.1"/>
<circle class="st1" cx="1193.1" cy="332.5" r="3.1"/>
<circle class="st1" cx="950.7" cy="318.8" r="3.1"/>
<circle class="st1" cx="69.2" cy="341.4" r="3.1"/>
<circle class="st1" cx="280.2" cy="343.3" r="3.1"/>
<circle class="st1" cx="227.4" cy="418.3" r="3.1"/>
<circle class="st1" cx="61.7" cy="557.2" r="3.1"/>
<circle class="st1" cx="1146.6" cy="294.4" r="3.1"/>
<circle class="st1" cx="1191.8" cy="114.3" r="3.1"/>
<circle class="st1" cx="448.8" cy="398.2" r="3.1"/>
<circle class="st1" cx="176" cy="607.8" r="3.1"/>
<circle class="st1" cx="159.6" cy="271.9" r="3.1"/>
<circle class="st1" cx="442.2" cy="168.7" r="3.1"/>
<circle class="st1" cx="510" cy="673.6" r="3.1"/>
<circle class="st1" cx="532.6" cy="600.4" r="3.1"/>
<circle class="st1" cx="870.6" cy="323.5" r="3.1"/>
<circle class="st1" cx="702.1" cy="127.4" r="3.1"/>
<circle class="st1" cx="828.9" cy="132.6" r="3.1"/>
<circle class="st1" cx="891.1" cy="592.9" r="3.1"/>
<circle class="st1" cx="660.6" cy="519.7" r="3.1"/>
<circle class="st1" cx="1169.2" cy="666.1" r="3.1"/>
<circle class="st1" cx="935.6" cy="701.8" r="3.1"/>
<circle class="st1" cx="408.3" cy="469" r="3.1"/>
<circle class="st1" cx="137" cy="480.3" r="3.1"/>
<circle class="st1" cx="1135.3" cy="164.9" r="3.1"/>
<circle class="st1" cx="122" cy="651.1" r="3.1"/>
<circle class="st1" cx="769.9" cy="615.4" r="3.1"/>
<circle class="st1" cx="859" cy="666.6" r="3.1"/>
<circle class="st1" cx="208.6" cy="544.1" r="3.1"/>
<circle class="st1" cx="1127.8" cy="369.5" r="3.1"/>
<circle class="st1" cx="1055.3" cy="424.6" r="3.1"/>
<circle class="st1" cx="1139.1" cy="534.9" r="3.1"/>
<circle class="st1" cx="68.8" cy="191.2" r="3.1"/>
<circle class="st1" cx="532.6" cy="528.4" r="3.1"/>
<circle class="st1" cx="325.4" cy="225" r="3.1"/>
<circle class="st1" cx="306.5" cy="149.9" r="3.1"/>
<circle class="st1" cx="472.3" cy="138.7" r="3.1"/>
<circle class="st1" cx="671.9" cy="694.3" r="3.1"/>
<circle class="st1" cx="348" cy="707.4" r="3.1"/>
<circle class="st1" cx="717.2" cy="230.6" r="3.1"/>
<circle class="st1" cx="434.6" cy="311.3" r="3.1"/>
<circle class="st0" cx="845.2" cy="547.8" r="2.5"/>
<circle class="st0" cx="1237" cy="249.4" r="2.5"/>
<circle class="st0" cx="84.3" cy="487.8" r="2.5"/>
<circle class="st0" cx="965.8" cy="348.9" r="2.5"/>
<circle class="st0" cx="219.9" cy="339.5" r="2.5"/>
<circle class="st0" cx="1135.9" cy="600.4" r="2.5"/>
<circle class="st0" cx="645.6" cy="696.1" r="2.5"/>
<circle class="st0" cx="626.7" cy="302" r="2.5"/>
<circle class="st0" cx="194" cy="308.2" r="2.5"/>
<circle class="st0" cx="244.8" cy="698.2" r="2.5"/>
<circle class="st0" cx="144.6" cy="435.2" r="2.5"/>
<circle class="st0" cx="1173" cy="504.7" r="2.5"/>
<circle class="st0" cx="393.2" cy="598.5" r="2.5"/>
<circle class="st0" cx="319.1" cy="651.1" r="2.5"/>
<circle class="st0" cx="1150.4" cy="636.1" r="2.5"/>
<circle class="st0" cx="286.1" cy="504.2" r="2.5"/>
<circle class="st0" cx="423.3" cy="444.6" r="2.5"/>
<circle class="st0" cx="1202.9" cy="705.5" r="2.5"/>
<circle class="st0" cx="1044.9" cy="542.2" r="2.5"/>
<circle class="st0" cx="1071.3" cy="399.6" r="2.5"/>
<circle class="st0" cx="126.8" cy="406.4" r="2.5"/>
<circle class="st0" cx="321.6" cy="410.8" r="2.5"/>
<circle class="st0" cx="272.6" cy="472.8" r="2.5"/>
<circle class="st0" cx="95.6" cy="607.8" r="2.5"/>
<circle class="st0" cx="1235.7" cy="384.5" r="2.5"/>
<circle class="st0" cx="1131.5" cy="332" r="2.5"/>
<circle class="st0" cx="875.4" cy="491.5" r="2.5"/>
<circle class="st0" cx="604.1" cy="497.2" r="2.5"/>
<circle class="st0" cx="185.8" cy="414.6" r="2.5"/>
<circle class="st0" cx="404.4" cy="261.3" r="2.5"/>
<circle class="st0" cx="547.6" cy="668" r="2.5"/>
<circle class="st0" cx="581.5" cy="587.9" r="2.5"/>
<circle class="st0" cx="1154.1" cy="240" r="2.5"/>
<circle class="st0" cx="709.6" cy="268.2" r="2.5"/>
<circle class="st0" cx="905.5" cy="296.3" r="2.5"/>
<circle class="st0" cx="924.6" cy="607.9" r="2.5"/>
<circle class="st0" cx="664.4" cy="559.1" r="2.5"/>
<circle class="st0" cx="845.2" cy="694.3" r="2.5"/>
<circle class="st0" cx="1026" cy="681.1" r="2.5"/>
<circle class="st0" cx="476.1" cy="525.3" r="2.5"/>
<circle class="st0" cx="165.9" cy="531.8" r="2.5"/>
<circle class="st0" cx="998.4" cy="564.7" r="2.5"/>
<circle class="st0" cx="912" cy="358.3" r="2.5"/>
<circle class="st0" cx="788.7" cy="649.7" r="2.5"/>
<circle class="st0" cx="900" cy="673.6" r="2.5"/>
<circle class="st0" cx="250" cy="577.9" r="2.5"/>
<circle class="st0" cx="1233.2" cy="431.5" r="2.5"/>
<circle class="st0" cx="1093.9" cy="452.1" r="2.5"/>
<circle class="st0" cx="1195.6" cy="570.4" r="2.5"/>
<circle class="st0" cx="995.9" cy="422.1" r="2.5"/>
<circle class="st0" cx="1248.3" cy="512.2" r="2.5"/>
<circle class="st0" cx="54.2" cy="258.8" r="2.5"/>
<circle class="st0" cx="73" cy="414.6" r="2.5"/>
<circle class="st0" cx="344.2" cy="286.9" r="2.5"/>
<circle class="st0" cx="506.2" cy="279.4" r="2.5"/>
<circle class="st0" cx="690.8" cy="660.5" r="2.5"/>
<circle class="st0" cx="370.6" cy="684.9" r="2.5"/>
<circle class="st0" cx="551.4" cy="125.5" r="2.5"/>
<circle class="st0" cx="401.9" cy="365.5" r="2.5"/>
<path class="st0" d="M236.5,447.5c2.1-7.3,9.4,5.6,12-2.1"/>
<path class="st0" d="M70.8,693.3c2.1-7.3,9.4,5.6,12-2.1"/>
<path class="st0" d="M123.5,359.2c2.1-7.3,9.4,5.6,12-2.1"/>
<path class="st0" d="M360.8,334.8c2.1-7.3,9.4,5.6,12-2.1"/>
<path class="st0" d="M268.9,537.5c2.1-7.3,9.4,5.6,12-2.1"/>
<path class="st0" d="M330.7,516.9c2.1-7.3,9.4,5.6,12-2.1"/>
<path class="st0" d="M794,205.3c2.1-7.3,9.4,5.6,12-2.1"/>
<path class="st0" d="M971.1,466.2c2.1-7.3,9.4,5.6,12-2.1"/>
<path class="st0" d="M752.6,503.8c2.1-7.3,9.4,5.6,12-2.1"/>
<path class="st0" d="M946.2,400.5c2.1-7.3,9.4,5.6,12-2.1"/>
<path class="st0" d="M541.6,501.4c2.1-7.3,9.4,5.6,12-2.1"/>
<path class="st0" d="M1204.6,254.1c2.1-7.3,9.4,5.6,12-2.1"/>
<path class="st0" d="M1061.5,327.3c2.1-7.3,9.4,5.6,12-2.1"/>
<path class="st0" d="M1170.1,443.1c2.1-7.3,9.4,5.6,12-2.1"/>
<path class="st0" d="M1084.1,539.4c2.1-7.3,9.4,5.6,12-2.1"/>
<path class="st0" d="M262.9,607c2.1-7.3,9.4,5.6,12-2.1"/>
<path class="st0" d="M183.8,705.1c2.1-7.3,9.4,5.6,12-2.1"/>
<path class="st0" d="M1004.3,163.5c2.1-7.3,9.4,5.6,12-2.1"/>
<path class="st0" d="M477.6,603.2c2.1-7.3,9.4,5.6,12-2.1"/>
<path class="st0" d="M142.3,117.1c2.1-7.3,9.4,5.6,12-2.1"/>
<path class="st0" d="M730,575.1c2.1-7.3,9.4,5.6,12-2.1"/>
<path class="st0" d="M1008.7,622c2.1-7.3,9.4,5.6,12-2.1"/>
<path class="st0" d="M824.2,640.8c2.1-7.3,9.4,5.6,12-2.1"/>
<path class="st0" d="M907,552.6c2.1-7.3,9.4,5.6,12-2.1"/>
<path class="st0" d="M609.4,657.7c2.1-7.3,9.4,5.6,12-2.1"/>
<path class="st0" d="M1215.9,310.4c2.1-7.3,9.4,5.6,12-2.1"/>
<path class="st0" d="M1133.1,691.3c2.1-7.3,9.4,5.6,12-2.1"/>
<path class="st0" d="M151.4,226c2.1-7.3,9.4,5.6,12-2.1"/>
<path class="st0" d="M1209.9,476.2c2.1-7.3,9.4,5.6,12-2.1"/>
<path class="st0" d="M386.6,121.3c2.1-7.3,9.4,5.6,12-2.1"/>
<path class="st0" d="M311.8,190.3c2.1-7.3,9.4,5.6,12-2.1"/>
<path class="st0" d="M277.9,303.4c2.1-7.3,9.4,5.6,12-2.1"/>
<path class="st0" d="M681,186.5c2.1-7.3,9.4,5.6,12-2.1"/>
<path class="st0" d="M945.2,144.8c2.1-7.3,9.4,5.6,12-2.1"/>
<path class="st0" d="M804.4,239.6c2.1-7.3,9.4,5.6,12-2.1"/>
<path class="st0" d="M858.6,136.5c2.1-7.3,9.4,5.6,12-2.1"/>
<path class="st0" d="M585.8,277.9c2.1-7.3,9.4,5.6,12-2.1"/>
<path class="st0" d="M660.9,162.1c2.1-7.3,9.4,5.6,12-2.1"/>
<path class="st0" d="M1050.2,706.5c2.1-7.3,9.4,5.6,12-2.1"/>
</svg>
