<?xml version="1.0" encoding="utf-8"?>
<!-- Generator: Adobe Illustrator 22.0.1, SVG Export Plug-In . SVG Version: 6.00 Build 0)  -->
<svg version="1.1" id="Livello_1" xmlns="http://www.w3.org/2000/svg" xmlns:xlink="http://www.w3.org/1999/xlink" x="0px" y="0px"
	 viewBox="0 0 841.9 595.3" style="enable-background:new 0 0 841.9 595.3;" xml:space="preserve">
<style type="text/css">
	.st0{fill:none;stroke:#64A4B8;stroke-width:2;stroke-miterlimit:10;}
	.st1{fill:#64A4B8;}
</style>
<g>
	<line class="st0" x1="477.8" y1="313.2" x2="469.9" y2="313.2"/>
</g>
<g>
	<line class="st0" x1="347.3" y1="248.5" x2="339.3" y2="248.5"/>
</g>
<g>
	<line class="st0" x1="159.9" y1="227.2" x2="151.9" y2="227.2"/>
</g>
<g>
	<line class="st0" x1="246.5" y1="266" x2="238.5" y2="266"/>
</g>
<g>
	<line class="st0" x1="205.1" y1="294.8" x2="197.1" y2="294.8"/>
</g>
<rect x="126.2" y="270.9" class="st1" width="6.6" height="6.6"/>
<rect x="412.5" y="225.8" class="st1" width="6.6" height="6.6"/>
<rect x="242" y="306.5" class="st1" width="6.6" height="6.6"/>
<g>
	<line class="st0" x1="470.7" y1="270.4" x2="481.4" y2="270.4"/>
	<line class="st0" x1="476.1" y1="265.1" x2="476.1" y2="275.8"/>
	<g>
		<line class="st0" x1="470.7" y1="270.4" x2="481.4" y2="270.4"/>
	</g>
</g>
<polygon class="st1" points="192.6,237 197.4,232.4 202,237.1 "/>
<polygon class="st1" points="313.2,312.1 317.9,307.5 322.6,312.2 "/>
<circle class="st1" cx="287.7" cy="251.7" r="3.1"/>
<circle class="st1" cx="332.9" cy="287.3" r="3.1"/>
<circle class="st1" cx="149" cy="255.4" r="3.1"/>
<circle class="st1" cx="427.1" cy="328.6" r="3.1"/>
<circle class="st1" cx="193.5" cy="364.3" r="3.1"/>
<circle class="st0" cx="393.8" cy="262.9" r="2.5"/>
<circle class="st0" cx="408.3" cy="298.6" r="2.5"/>
<circle class="st0" cx="460.8" cy="368" r="2.5"/>
<circle class="st0" cx="182.5" cy="270.4" r="2.5"/>
<circle class="st0" cx="284" cy="343.6" r="2.5"/>
<circle class="st0" cx="256.3" cy="227.2" r="2.5"/>
<circle class="st0" cx="157.9" cy="336.1" r="2.5"/>
<circle class="st0" cx="453.5" cy="232.9" r="2.5"/>
<path class="st0" d="M266.7,284.5c2.1-7.3,9.4,5.6,12-2.1"/>
<path class="st0" d="M391,353.8c2.1-7.3,9.4,5.6,12-2.1"/>
<path class="st0" d="M308.1,369c2.1-7.3,9.4,5.6,12-2.1"/>
</svg>
